<svg xmlns="http://www.w3.org/2000/svg" width="30" height="24.623" viewBox="0 0 30 24.623"><g transform="translate(-659 -630.023)"><g transform="translate(659 632.144)" fill="none"><path d="M11.251,0A11.319,11.319,0,0,1,22.113,8.309a10.867,10.867,0,0,1,.388,2.941A11.251,11.251,0,1,1,11.251,0Z" stroke="none"/><path d="M 11.25061321258545 3 C 6.701212882995605 3 3.000003814697266 6.70121955871582 3.000003814697266 11.25062942504883 C 3.000003814697266 15.80003929138184 6.701212882995605 19.50125885009766 11.25061321258545 19.50125885009766 C 15.80001258850098 19.50125885009766 19.50122261047363 15.80003929138184 19.50122261047363 11.25062942504883 C 19.50122261047363 10.50666904449463 19.40153312683105 9.723299026489258 19.23455238342285 9.155109405517578 L 19.23205375671387 9.14656925201416 C 18.1634521484375 5.470119476318359 14.95595359802246 3 11.25061321258545 3 M 11.25061321258545 0 C 16.37057304382324 0 20.69173240661621 3.420059204101562 22.11283302307129 8.309239387512207 C 22.34519386291504 9.099899291992188 22.50122261047363 10.15703964233398 22.50122261047363 11.25062942504883 C 22.50122261047363 17.46417999267578 17.46415328979492 22.50125885009766 11.25061321258545 22.50125885009766 C 5.037073135375977 22.50125885009766 3.814697265625e-06 17.46417999267578 3.814697265625e-06 11.25062942504883 C 3.814697265625e-06 5.037078857421875 5.037073135375977 0 11.25061321258545 0 Z" stroke="none" fill="#f5e532"/></g><g transform="translate(665.994 632.144)"><line x2="5.414" y2="5.414" transform="translate(0 10.055)" fill="none" stroke="#666" stroke-linecap="square" stroke-width="3"/><line y1="15.47" x2="15.47" transform="translate(5.414 0)" fill="none" stroke="#666" stroke-linecap="square" stroke-width="3"/></g></g></svg>