<svg xmlns="http://www.w3.org/2000/svg" width="111.987" height="133.864" viewBox="0 0 111.987 133.864">
  <g id="Group_2" data-name="Group 2" transform="translate(-336.5 -141)">
    <g id="Group_1" data-name="Group 1" transform="translate(-3 5)">
      <path id="Subtraction_2" data-name="Subtraction 2" d="M93.937,129.364a44.5,44.5,0,0,1-16.4-2.839,33.773,33.773,0,0,1-12.212-8.165,36.847,36.847,0,0,1-7.739-12.568,45.013,45.013,0,0,1-2.7-15.762,46.1,46.1,0,0,1,1.119-10.366,35.555,35.555,0,0,1,3.354-8.946c.168-.309.352-.636.546-.971H48.838A4.789,4.789,0,0,0,45.43,71.1a4.6,4.6,0,0,0-1.42,3.479v49.984h-.056A22.037,22.037,0,0,0,22,104V73.155a25.98,25.98,0,0,1,1.42-8.875,18.051,18.051,0,0,1,11.041-11,26.522,26.522,0,0,1,8.981-1.42H64.6V63.44a34.342,34.342,0,0,0-4.694,6.307H64.6V63.44A33.13,33.13,0,0,1,71.643,57.8a31.849,31.849,0,0,1,8.449-3.514,39.037,39.037,0,0,1,9.726-1.171,29.708,29.708,0,0,1,8.307,1.136,24.518,24.518,0,0,1,7.1,3.337,21.412,21.412,0,0,1,5.325,5.183h.426V44H111A21.877,21.877,0,0,0,132.91,24h.076V89.888a49.758,49.758,0,0,1-1.207,11.182,38.774,38.774,0,0,1-3.622,9.691,34.545,34.545,0,0,1-5.822,7.917,33.869,33.869,0,0,1-7.809,5.857,37.809,37.809,0,0,1-9.55,3.621A48.531,48.531,0,0,1,93.937,129.364ZM92.5,72a19.494,19.494,0,1,0,11.15,3.5c-.281-.212-.563-.411-.838-.591a14.4,14.4,0,0,0-3.387-1.643A19.448,19.448,0,0,0,92.5,72Z" transform="translate(318 140)" fill="#393232" stroke="rgba(0,0,0,0)" stroke-miterlimit="10" stroke-width="1"/>
      <path id="Exclusion_5" data-name="Exclusion 5" d="M17.5,35A17.5,17.5,0,0,1,5.126,5.126,17.5,17.5,0,1,1,29.874,29.874,17.386,17.386,0,0,1,17.5,35Zm4.358-21.487v.967l7.917,3.171-7.917,3.171v.967l8.925-3.633V17.146Zm-8.42,0L4.512,17.146v1.008l8.925,3.633v-.967L5.52,17.65l7.917-3.171Z" transform="translate(409 143)" fill="#e65127" opacity="0.9"/>
      <path id="Exclusion_4" data-name="Exclusion 4" d="M12.5,25A12.5,12.5,0,0,1,3.661,3.661,12.5,12.5,0,0,1,21.339,21.339,12.418,12.418,0,0,1,12.5,25Zm1.9-5.886v.6h.448a1.515,1.515,0,0,0,1.736-1.68v-3.85c0-.483.207-.728.616-.728h.491v-.6H17.2c-.408,0-.616-.24-.616-.714V8.292a1.514,1.514,0,0,0-1.736-1.679H14.4v.6h.406c.715,0,1.078.382,1.078,1.134v3.78a1.429,1.429,0,0,0,.133.693.8.8,0,0,0,.441.343.8.8,0,0,0-.441.343,1.425,1.425,0,0,0-.133.693v3.78c0,.752-.363,1.134-1.078,1.134ZM6.868,12.856v.6h.49c.418,0,.63.245.63.728v3.85a1.508,1.508,0,0,0,1.722,1.68h.448v-.6H9.752c-.706,0-1.065-.382-1.065-1.134V14.2a1.375,1.375,0,0,0-.139-.693.84.84,0,0,0-.434-.343.839.839,0,0,0,.434-.343,1.38,1.38,0,0,0,.139-.693V8.348c0-.752.358-1.134,1.065-1.134h.406v-.6H9.71A1.508,1.508,0,0,0,7.988,8.292v3.85c0,.474-.212.714-.63.714Z" transform="translate(379 136)" fill="#30aadd" opacity="0.7"/>
      <path id="Exclusion_3" data-name="Exclusion 3" d="M7.5,15A7.5,7.5,0,1,1,15,7.5,7.509,7.509,0,0,1,7.5,15ZM8.382,4.806a5.282,5.282,0,0,1,.595,1.5,7.887,7.887,0,0,1,.189,1.778A7.887,7.887,0,0,1,8.977,9.86a5.282,5.282,0,0,1-.595,1.5h.329a5.187,5.187,0,0,0,.6-1.473,7.545,7.545,0,0,0,.206-1.8,7.631,7.631,0,0,0-.206-1.81,4.97,4.97,0,0,0-.6-1.466Zm-2.8,0A5.089,5.089,0,0,0,4.99,6.272a7.631,7.631,0,0,0-.206,1.81,7.5,7.5,0,0,0,.206,1.8,5.418,5.418,0,0,0,.591,1.477h.337a6.41,6.41,0,0,1-.791-3.276,6.409,6.409,0,0,1,.791-3.276Z" transform="translate(359 141)" fill="#e7a328" opacity="0.5"/>
    </g>
  </g>
</svg>
