<svg xmlns="http://www.w3.org/2000/svg" width="45" height="45" viewBox="0 0 45 45"><g transform="translate(-0.387 -0.387)"><rect width="45" height="45" transform="translate(0.387 0.387)" fill="none"/><g transform="translate(4.513 4.503)"><path d="M39.238,31.73,28.828,21.315l4-4L26.812,11.29l-4,4L12.4,4.878a3.032,3.032,0,0,0-4.272,0L4.878,8.129a3.035,3.035,0,0,0,0,4.275L15.288,22.82,4.005,34.109v6.021h6.018L21.306,28.841l10.41,10.416a3,3,0,0,0,4.242,0l3.25-3.251A3.008,3.008,0,0,0,39.238,31.73ZM17.424,20.682,7.014,10.267l3.249-3.251h0l2.076,2.077-1.625,1.626L12.7,12.735l1.625-1.626L17.515,14.3,15.89,15.926l2.016,2.017,1.625-1.626,1.143,1.144ZM33.852,37.119,23.442,26.7l3.25-3.251,1.2,1.2L26.27,26.282,28.286,28.3l1.625-1.626L33.1,29.864,31.475,31.49l2.016,2.017,1.625-1.626L37.1,33.868Z" transform="translate(-3.997 -3.997)" fill="#fff"/><path d="M19.819,9.083a1.118,1.118,0,0,0,0-1.6L16.907,4.569a1.118,1.118,0,0,0-1.6,0L12.28,7.593l4.515,4.515Z" transform="translate(15.437 -3.705)" fill="#fff"/></g></g></svg>